<svg width="154" height="154" viewBox="0 0 154 154" fill="none" xmlns="http://www.w3.org/2000/svg">
<rect width="154" height="154" rx="3" fill="#D23362"/>
<path d="M30 27C28.3431 27 27 28.3431 27 30V124C27 125.657 28.3431 127 30 127H124C125.657 127 127 125.657 127 124V30C127 28.3431 125.657 27 124 27H30ZM39.5 42.5C39.5 40.8431 40.8431 39.5 42.5 39.5H111.5C113.157 39.5 114.5 40.8431 114.5 42.5V69.7574C114.5 72.4301 111.269 73.7686 109.379 71.8787L104.121 66.6213C102.95 65.4497 101.05 65.4497 99.8787 66.6213L91.6213 74.8787C90.4497 76.0503 90.4497 77.9497 91.6213 79.1213L113.621 101.121C114.184 101.684 114.5 102.447 114.5 103.243V111.5C114.5 113.157 113.157 114.5 111.5 114.5H103.243C102.447 114.5 101.684 114.184 101.121 113.621L54.1213 66.6213C52.9497 65.4497 51.0503 65.4497 49.8787 66.6213L44.6213 71.8787C42.7314 73.7686 39.5 72.4301 39.5 69.7574V42.5Z" fill="#E5DAF6"/>
</svg>
