<svg xmlns="http://www.w3.org/2000/svg" width="51" height="50" viewBox="0 0 51 50" fill="none">
<rect x="0.5" width="50" height="50" rx="5" fill="#F0E4E4"/>
<path d="M38.5 26.5C39.3284 26.5 40 25.8284 40 25C40 24.1716 39.3284 23.5 38.5 23.5V26.5ZM13.4393 23.9393C12.8536 24.5251 12.8536 25.4749 13.4393 26.0607L22.9853 35.6066C23.5711 36.1924 24.5208 36.1924 25.1066 35.6066C25.6924 35.0208 25.6924 34.0711 25.1066 33.4853L16.6213 25L25.1066 16.5147C25.6924 15.9289 25.6924 14.9792 25.1066 14.3934C24.5208 13.8076 23.5711 13.8076 22.9853 14.3934L13.4393 23.9393ZM38.5 23.5L14.5 23.5V26.5L38.5 26.5V23.5Z" fill="#C09595"/>
</svg>