<svg xmlns="http://www.w3.org/2000/svg" width="26" height="22" viewBox="0 0 26 22" fill="none">
<path d="M13 22C12.4619 22 11.9238 21.7963 11.5099 21.4296C10.5579 20.6148 9.68874 19.8815 8.90232 19.2296C6.54305 17.2333 4.47351 15.563 3.02483 13.8519C1.32781 11.8148 0.5 9.9 0.5 7.74074C0.5 5.66296 1.24503 3.70741 2.56954 2.28148C3.93543 0.814815 5.8394 0 7.86755 0C9.39901 0 10.8477 0.488889 12.0894 1.42593C12.4205 1.67037 12.7103 1.91481 13 2.24074C13.2897 1.95556 13.5795 1.67037 13.9106 1.42593C15.1523 0.488889 16.5596 0 18.1325 0C20.202 0 22.0646 0.814815 23.4305 2.28148C24.7964 3.70741 25.5 5.66296 25.5 7.74074C25.5 9.9 24.7136 11.8148 22.9752 13.8519C21.5265 15.563 19.457 17.2741 17.0977 19.2296C16.3113 19.8815 15.4007 20.6556 14.4487 21.4296C14.0762 21.7963 13.5381 22 13 22ZM7.86755 1.83333C6.33609 1.83333 4.92881 2.44444 3.89404 3.5037C2.90066 4.6037 2.36258 6.11111 2.36258 7.74074C2.36258 9.41111 3.02483 11 4.43212 12.6704C5.79801 14.2593 7.78477 15.9296 10.0613 17.8444C10.8477 18.4963 11.7583 19.2704 12.7103 20.0852C12.8758 20.2074 13.1242 20.2074 13.2897 20.0852C14.2417 19.2704 15.1523 18.537 15.9387 17.8444C18.2566 15.8889 19.6755 14.2593 21 12.6704C22.4073 11 23.6374 9.41111 23.6374 7.74074C23.6374 6.11111 23.0579 4.6037 22.0646 3.54444C21.0298 2.44444 19.6225 1.83333 18.1325 1.83333C17.0149 1.83333 15.9801 2.2 15.0695 2.85185C14.697 3.13704 14.3659 3.46296 14.0348 3.82963C13.7864 4.11481 13.4139 4.5 13 4.5C12.5861 4.5 12.255 4.15556 11.9652 3.82963C11.6341 3.46296 11.303 3.13704 10.9305 2.85185C10.0613 2.2 9.02649 1.83333 7.86755 1.83333Z" fill="white"/>
</svg>