<svg width="100" height="100" viewBox="0 0 100 100" fill="none" xmlns="http://www.w3.org/2000/svg">
<path d="M3 0C1.34314 0 0 1.34315 0 3V97C0 98.6569 1.34315 100 3 100H97C98.6569 100 100 98.6569 100 97V3C100 1.34314 98.6569 0 97 0H3ZM12.5 15.5C12.5 13.8431 13.8431 12.5 15.5 12.5H84.5C86.1569 12.5 87.5 13.8431 87.5 15.5V42.7574C87.5 45.4301 84.2686 46.7686 82.3787 44.8787L77.1213 39.6213C75.9497 38.4497 74.0503 38.4497 72.8787 39.6213L64.6213 47.8787C63.4497 49.0503 63.4497 50.9497 64.6213 52.1213L86.6213 74.1213C87.1839 74.6839 87.5 75.447 87.5 76.2426V84.5C87.5 86.1569 86.1569 87.5 84.5 87.5H76.2426C75.447 87.5 74.6839 87.1839 74.1213 86.6213L27.1213 39.6213C25.9497 38.4497 24.0503 38.4497 22.8787 39.6213L17.6213 44.8787C15.7314 46.7686 12.5 45.4301 12.5 42.7574V15.5Z" fill="white"/>
</svg>
