<svg width="26" height="22" viewBox="0 0 26 22" fill="none" xmlns="http://www.w3.org/2000/svg">
<path d="M13.0216 22C12.6762 22 12.3307 21.8711 12.0717 21.6562C11.0786 20.7969 10.0855 19.9805 9.22194 19.25C6.71762 17.1445 4.51554 15.2969 3.00432 13.4922C1.2772 11.4297 0.5 9.53906 0.5 7.43359C0.5 5.41406 1.19085 3.52344 2.48618 2.14844C3.78152 0.773437 5.55181 0 7.49482 0C8.91969 0 10.2582 0.472656 11.424 1.33203C11.899 1.67578 12.2876 2.10547 12.6762 2.57812C12.8489 2.79297 13.1511 2.79297 13.3238 2.57812C13.7124 2.10547 14.1442 1.71875 14.576 1.33203C15.7418 0.429687 17.0803 0 18.5052 0C20.4482 0 22.2185 0.773437 23.5138 2.14844C24.8092 3.52344 25.5 5.41406 25.5 7.43359C25.5 9.53906 24.7228 11.4297 22.9957 13.4492C21.4845 15.2539 19.2824 17.1016 16.7781 19.207C15.9145 19.9375 14.9214 20.7539 13.9283 21.6133C13.7124 21.8711 13.367 22 13.0216 22Z" fill="#E5DAF6"/>
</svg>
